<svg width="45" height="46" viewBox="0 0 45 46" fill="none" xmlns="http://www.w3.org/2000/svg">
<path d="M22.5 4.25C12.1613 4.25 3.75 12.6613 3.75 23C3.75 33.3387 12.1613 41.75 22.5 41.75C32.8387 41.75 41.25 33.3387 41.25 23C41.25 12.6613 32.8387 4.25 22.5 4.25ZM7.5 23C7.5 21.3144 7.7925 19.6962 8.30813 18.1831L11.25 21.125L15 24.875V28.625L18.75 32.375L20.625 34.25V37.8706C13.2394 36.9425 7.5 30.635 7.5 23ZM34.3687 32.1369C33.1444 31.1506 31.2881 30.5 30 30.5V28.625C30 27.6304 29.6049 26.6766 28.9016 25.9734C28.1984 25.2701 27.2446 24.875 26.25 24.875H18.75V19.25C19.7446 19.25 20.6984 18.8549 21.4016 18.1516C22.1049 17.4484 22.5 16.4946 22.5 15.5V13.625H24.375C25.3696 13.625 26.3234 13.2299 27.0266 12.5267C27.7299 11.8234 28.125 10.8696 28.125 9.875V9.10438C33.615 11.3338 37.5 16.7188 37.5 23C37.4997 26.3088 36.398 29.5234 34.3687 32.1369Z" fill="black"/>
</svg>
