<svg width="71" height="70" viewBox="0 0 71 70" fill="none" xmlns="http://www.w3.org/2000/svg">
<g clip-path="url(#clip0_8_86)">
<path d="M61.0859 57.6562C61.4766 57.5 61.8151 57.4609 62.1016 57.5391C62.388 57.6172 62.5313 57.8451 62.5313 58.2227C62.5313 58.6003 62.3359 59.0365 61.9453 59.5312C61.6068 59.9479 61.0339 60.5143 60.2266 61.2305C59.4193 61.9466 58.1758 62.832 56.4961 63.8867C54.8164 64.9414 52.9805 65.9049 50.9883 66.7773C48.9961 67.6497 46.5482 68.4049 43.6445 69.043C40.7409 69.681 37.7526 70 34.6797 70C31.5807 70 28.4818 69.5964 25.3828 68.7891C22.2839 67.9818 19.5625 66.9857 17.2188 65.8008C14.875 64.6159 12.6289 63.2617 10.4805 61.7383C8.33203 60.2148 6.60677 58.8477 5.30469 57.6367C4.0026 56.4258 2.90885 55.2865 2.02344 54.2188C1.8151 53.9844 1.6849 53.7695 1.63281 53.5742C1.58073 53.3789 1.59375 53.2227 1.67188 53.1055C1.75 52.9883 1.85417 52.8971 1.98438 52.832C2.11458 52.7669 2.26432 52.7409 2.43359 52.7539C2.60286 52.7669 2.7526 52.8255 2.88281 52.9297C7.88281 55.9766 11.7891 58.138 14.6016 59.4141C24.7318 63.9974 35.1354 65.1693 45.8125 62.9297C50.7604 61.888 55.8516 60.1302 61.0859 57.6562ZM69.1719 53.1641C69.4583 53.5807 69.4909 54.4857 69.2695 55.8789C69.0482 57.2721 68.6771 58.6068 68.1563 59.8828C67.2708 62.0443 66.1641 63.6589 64.8359 64.7266C64.3932 65.0911 64.0547 65.2083 63.8203 65.0781C63.5859 64.9479 63.5859 64.6354 63.8203 64.1406C64.3672 62.9688 64.9466 61.3867 65.5586 59.3945C66.1706 57.4023 66.2552 56.1198 65.8125 55.5469C65.6823 55.3646 65.4805 55.2148 65.207 55.0977C64.9336 54.9805 64.582 54.9023 64.1524 54.8633C63.7227 54.8242 63.3386 54.7917 63 54.7656C62.6615 54.7396 62.2057 54.7396 61.6328 54.7656C61.0599 54.7917 60.6497 54.8177 60.4024 54.8438C60.155 54.8698 59.7513 54.9089 59.1914 54.9609C58.6315 55.013 58.3386 55.0391 58.3125 55.0391C58.1563 55.0651 57.987 55.0846 57.8047 55.0977C57.6224 55.1107 57.4792 55.1237 57.375 55.1367C57.2708 55.1497 57.1602 55.1628 57.043 55.1758C56.9258 55.1888 56.8346 55.1953 56.7695 55.1953H56.3789L56.2617 55.1758L56.1836 55.1172L56.125 55C55.9688 54.5833 56.5807 54.0625 57.9609 53.4375C59.3412 52.8125 60.6823 52.4219 61.9844 52.2656C63.1823 52.0833 64.5886 52.0703 66.2031 52.2266C67.8177 52.3828 68.8073 52.6953 69.1719 53.1641ZM53.7813 35.8594C53.7813 36.6667 53.957 37.5 54.3086 38.3594C54.6602 39.2188 55.0768 39.974 55.5586 40.625C56.0404 41.276 56.5287 41.875 57.0234 42.4219C57.5182 42.9688 57.9479 43.3854 58.3125 43.6719L58.8203 44.1016L49.9531 52.8516C48.9115 51.888 47.8828 50.9049 46.8672 49.9023C45.8516 48.8997 45.0964 48.138 44.6016 47.6172L43.8594 46.8359C43.5729 46.5495 43.2474 46.1198 42.8828 45.5469C41.8932 47.0833 40.6237 48.418 39.0742 49.5508C37.5247 50.6836 35.8646 51.5104 34.0938 52.0312C32.3229 52.5521 30.5 52.8516 28.625 52.9297C26.75 53.0078 24.9596 52.7344 23.2539 52.1094C21.5482 51.4844 20.0182 50.6315 18.6641 49.5508C17.3099 48.4701 16.2292 46.9987 15.4219 45.1367C14.6146 43.2747 14.2109 41.1589 14.2109 38.7891C14.2109 36.6016 14.5755 34.5964 15.3047 32.7734C16.0339 30.9505 16.9714 29.4336 18.1172 28.2227C19.263 27.0117 20.6497 25.931 22.2773 24.9805C23.9049 24.0299 25.5 23.2878 27.0625 22.7539C28.625 22.2201 30.3177 21.7708 32.1406 21.4062C33.9635 21.0417 35.5195 20.8008 36.8086 20.6836C38.0977 20.5664 39.3932 20.4818 40.6953 20.4297V15.4688C40.6953 13.776 40.4219 12.513 39.875 11.6797C38.9896 10.2995 37.4141 9.60938 35.1484 9.60938C34.9922 9.60938 34.7773 9.6224 34.5039 9.64844C34.2305 9.67448 33.7031 9.83073 32.9219 10.1172C32.1406 10.4036 31.4115 10.7878 30.7344 11.2695C30.0573 11.7513 29.3281 12.526 28.5469 13.5938C27.7656 14.6615 27.1406 15.9115 26.6719 17.3438L15.1875 16.2891C15.1875 14.7266 15.474 13.1771 16.0469 11.6406C16.6198 10.1042 17.4922 8.63281 18.6641 7.22656C19.8359 5.82031 21.2422 4.58333 22.8828 3.51562C24.5234 2.44792 26.4961 1.59505 28.8008 0.957031C31.1055 0.31901 33.5859 0 36.2422 0C38.8464 0 41.2031 0.325521 43.3125 0.976562C45.4219 1.6276 47.1081 2.42839 48.3711 3.37891C49.6341 4.32943 50.6888 5.41016 51.5352 6.62109C52.3815 7.83203 52.9675 8.95182 53.293 9.98047C53.6185 11.0091 53.7813 11.9661 53.7813 12.8516V35.8594ZM27.5313 36.6797C27.5313 38.9193 28.4427 40.651 30.2656 41.875C31.9844 43.0208 33.7943 43.3073 35.6953 42.7344C37.8828 42.0833 39.3672 40.4818 40.1484 37.9297C40.513 36.7578 40.6953 35.4427 40.6953 33.9844V27.6562C39.1589 27.7083 37.7135 27.8646 36.3594 28.125C35.0052 28.3854 33.6185 28.8216 32.1992 29.4336C30.78 30.0456 29.6471 30.9701 28.8008 32.207C27.9544 33.444 27.5313 34.9349 27.5313 36.6797Z" fill="#999999"/>
</g>
<defs>
<clipPath id="clip0_8_86">
<rect width="70" height="70" fill="white" transform="translate(0.5)"/>
</clipPath>
</defs>
</svg>
